<?xml version="1.0" standalone="no"?>
<!DOCTYPE svg PUBLIC "-//W3C//DTD SVG 1.1//EN" "http://www.w3.org/Graphics/SVG/1.1/DTD/svg11.dtd">
<svg xmlns="http://www.w3.org/2000/svg">
<metadata>Generated by Fontastic.me</metadata>
<defs>
<font id="untitled-font-5" horiz-adv-x="512">
<font-face font-family="untitled-font-5" units-per-em="512" ascent="480" descent="-32"/>
<missing-glyph horiz-adv-x="512" />

<glyph glyph-name="chevronrightalt" unicode="&#97;" d="M256 0c-33 0-64 6-94 19-29 12-55 30-77 52-22 22-40 48-52 77-12 29-19 61-19 94 0 32 7 64 19 94 12 29 30 54 52 77 22 22 48 39 77 51 30 13 61 19 94 19 33 0 64-6 94-19 29-12 55-29 77-51 22-23 40-48 52-77 12-30 19-62 19-94 0-33-7-65-19-94-12-29-30-55-52-77-22-22-48-40-77-52-30-13-61-19-94-19z m0 452c-28 0-56-5-82-16-25-11-48-26-67-45-19-20-34-42-45-67-11-26-17-54-17-82 0-29 6-56 17-82 11-25 26-48 45-67 19-20 42-35 67-45 26-11 54-17 82-17 28 0 56 6 82 17 25 10 48 25 67 45 19 19 34 42 45 67 11 26 17 53 17 82 0 28-6 56-17 82-11 25-26 47-45 67-19 19-42 34-67 45-26 11-54 16-82 16z m-47-318l94 108-94 107 24 21 111-128-111-128z"/>
<glyph glyph-name="chevronright" unicode="&#98;" d="M186 125l98 112-98 112 24 21 116-133-116-133z"/>
<glyph glyph-name="chevronleftalt" unicode="&#99;" d="M256 0c-33 0-64 6-94 19-29 12-55 30-77 52-22 22-40 48-52 77-12 29-19 61-19 94 0 32 7 64 19 94 12 29 30 54 52 77 22 22 48 39 77 51 30 13 61 19 94 19 33 0 64-6 94-19 29-12 55-29 77-51 22-23 40-48 52-77 12-30 19-62 19-94 0-33-7-65-19-94-12-29-30-55-52-77-22-22-48-40-77-52-30-13-61-19-94-19z m0 452c-28 0-56-5-82-16-25-11-48-26-67-45-19-20-34-42-45-67-11-26-17-54-17-82 0-29 6-56 17-82 11-25 26-48 45-67 19-20 42-35 67-45 26-11 54-17 82-17 28 0 56 6 82 17 25 10 48 25 67 45 19 19 34 42 45 67 11 26 17 53 17 82 0 28-6 56-17 82-11 25-26 47-45 67-19 19-42 34-67 45-26 11-54 16-82 16z m46-103l-94-107 94-108-23-20-112 128 112 128z"/>
<glyph glyph-name="chevronup" unicode="&#100;" d="M364 195l-108 94-108-94-20 24 128 111 128-111z"/>
<glyph glyph-name="chevronupalt" unicode="&#101;" d="M256 0c-33 0-64 6-94 19-29 12-55 30-77 52-22 22-40 48-52 77-12 29-19 61-19 94 0 32 7 64 19 94 12 29 30 54 52 77 22 22 48 39 77 51 30 13 61 19 94 19 33 0 64-6 94-19 29-12 55-29 77-51 22-23 40-48 52-77 12-30 19-62 19-94 0-33-7-65-19-94-12-29-30-55-52-77-22-22-48-40-77-52-30-13-61-19-94-19z m0 452c-28 0-56-5-82-16-25-11-48-26-67-45-19-20-34-42-45-67-11-26-17-54-17-82 0-29 6-56 17-82 11-25 26-48 45-67 19-20 42-35 67-45 26-11 54-17 82-17 28 0 56 6 82 17 25 10 48 25 67 45 19 19 34 42 45 67 11 26 17 53 17 82 0 28-6 56-17 82-11 25-26 47-45 67-19 19-42 34-67 45-26 11-54 16-82 16z m108-257l-108 94-108-94-20 24 128 111 128-111z"/>
<glyph glyph-name="close" unicode="&#102;" d="M256 0c-33 0-64 6-94 19-29 12-55 30-77 52-22 22-40 48-52 77-12 29-19 61-19 94 0 32 7 64 19 94 12 29 30 54 52 77 22 22 48 39 77 51 30 13 61 19 94 19 33 0 64-6 94-19 29-12 55-29 77-51 22-23 40-48 52-77 12-30 19-62 19-94 0-33-7-65-19-94-12-29-30-55-52-77-22-22-48-40-77-52-30-13-61-19-94-19z m0 452c-28 0-56-5-82-16-25-11-48-26-67-45-19-20-34-42-45-67-11-26-17-54-17-82 0-29 6-56 17-82 11-25 26-48 45-67 19-20 42-35 67-45 26-11 54-17 82-17 28 0 56 6 82 17 25 10 48 25 67 45 19 19 34 42 45 67 11 26 17 53 17 82 0 28-6 56-17 82-11 25-26 47-45 67-19 19-42 34-67 45-26 11-54 16-82 16z m100-288l-78 78 78 77-22 22-78-77-78 77-22-22 78-77-78-78 22-22 78 78 78-78z"/>
<glyph glyph-name="apple" unicode="&#103;" d="M397 363c-27-20-40-44-40-72 0-33 17-59 49-77-8-26-21-50-37-70-17-20-32-30-46-30-6 0-15 2-26 7l-6 2c-11 5-20 7-29 7-8 0-16-2-26-6l-6-2-9-4c-7-3-13-4-20-4-16 0-34 14-53 42-28 40-42 83-42 130-1 34 8 61 25 82 18 20 41 30 69 31 11 0 21-2 31-7l6-2 7-3c6-3 11-4 14-4 5 0 10 1 16 3l9 4 6 3c11 4 22 6 35 6 30 0 54-12 73-36z m-72 121c1-5 1-8 1-10 0-21-7-40-22-56-14-16-31-24-50-24-1 5-1 8-1 10 0 18 6 35 20 51 13 16 29 25 46 28 2 0 4 0 6 1z"/>
<glyph glyph-name="closealt" unicode="&#104;" d="M512 499l-13 13-243-243-243 243-13-13 244-243-244-243 13-13 243 243 243-243 13 13-243 243z"/>
<glyph glyph-name="download" unicode="&#105;" d="M256 0c-33 0-64 6-94 19-29 12-55 30-77 52-22 22-40 48-52 77-12 29-19 61-19 94 0 32 7 64 19 94 12 29 30 55 52 77 22 22 48 39 77 52 30 12 61 19 94 19 33 0 64-7 94-19 29-13 55-30 77-52 22-22 40-48 52-77 12-30 19-62 19-94 0-33-7-65-19-94-12-29-30-55-52-77-22-22-48-40-77-52-30-13-61-19-94-19z m0 452c-28 0-56-5-82-16-25-11-48-26-67-45-19-20-34-42-45-67-11-26-17-54-17-82 0-29 6-56 17-82 11-25 26-48 45-67 19-20 42-35 67-45 26-11 54-17 82-17 28 0 56 6 82 17 25 10 48 25 67 45 19 19 34 42 45 67 11 26 17 53 17 82 0 28-6 56-17 82-11 25-26 47-45 67-19 19-42 34-67 45-26 11-54 16-82 16z m11-142l0-114 33 0-44-40-43 40 32 0 0 114 22 0m32 31l-86 0 0-113-80 0 123-114 123 114-80 0z"/>
<glyph glyph-name="downloadalt" unicode="&#106;" d="M256 0c-33 0-64 6-94 19-29 12-55 30-77 52-22 22-40 48-52 77-12 29-19 61-19 94 0 32 7 64 19 94 12 29 30 55 52 77 22 22 48 39 77 52 30 12 61 19 94 19 33 0 64-7 94-19 29-13 55-30 77-52 22-22 40-48 52-77 12-30 19-62 19-94 0-33-7-65-19-94-12-29-30-55-52-77-22-22-48-40-77-52-30-13-61-19-94-19z m0 452c-28 0-56-5-82-16-25-11-48-26-67-45-19-20-34-42-45-67-11-26-17-54-17-82 0-29 6-56 17-82 11-25 26-48 45-67 19-20 42-35 67-45 26-11 54-17 82-17 28 0 56 6 82 17 25 10 48 25 67 45 19 19 34 42 45 67 11 26 17 53 17 82 0 28-6 56-17 82-11 25-26 47-45 67-19 19-42 34-67 45-26 11-54 16-82 16z m43-111l-86 0 0-113-80 0 123-114 123 114-80 0z"/>
<glyph glyph-name="external" unicode="&#107;" d="M185 370l0-31 146 0-203-203 22-22 203 203 0-146 31 0 0 199z"/>
<glyph glyph-name="alert" unicode="&#108;" d="M256 0c-33 0-64 6-94 19-29 12-55 30-77 52-22 22-40 48-52 77-12 29-19 61-19 94 0 32 7 64 19 94 12 29 30 55 52 77 22 22 48 39 77 52 30 12 61 19 94 19 33 0 64-7 94-19 29-13 55-30 77-52 22-22 40-48 52-77 12-30 19-62 19-94 0-33-7-65-19-94-12-29-30-55-52-77-22-22-48-40-77-52-30-13-61-19-94-19z m0 452c-28 0-56-5-82-16-25-11-48-26-67-45-19-20-34-42-45-67-11-26-17-54-17-82 0-29 6-56 17-82 11-25 26-48 45-67 19-20 42-35 67-45 26-11 54-17 82-17 28 0 56 6 82 17 25 10 48 25 67 45 19 19 34 42 45 67 11 26 17 53 17 82 0 28-6 56-17 82-11 25-26 47-45 67-19 19-42 34-67 45-26 11-54 16-82 16z m-15-168l30 0 0-170-30 0z m15 46c6 0 11 1 14 5 4 4 6 9 6 15 0 6-2 10-5 14-4 4-9 6-15 6-6 0-11-2-14-6-4-4-6-9-6-14 0-6 2-11 5-15 4-4 9-5 15-5z"/>
<glyph glyph-name="list" unicode="&#109;" d="M256 0c-33 0-64 6-94 19-29 12-55 30-77 52-22 22-40 48-52 77-12 29-19 61-19 94 0 32 7 64 19 94 12 29 30 55 52 77 22 22 48 39 77 52 30 12 61 19 94 19 33 0 64-7 94-19 29-13 55-30 77-52 22-22 40-48 52-77 12-30 19-62 19-94 0-33-7-65-19-94-12-29-30-55-52-77-22-22-48-40-77-52-30-13-61-19-94-19z m0 452c-28 0-56-5-82-16-25-11-48-26-67-45-19-20-34-42-45-67-11-26-17-54-17-82 0-29 6-56 17-82 11-25 26-48 45-67 19-20 42-35 67-45 26-11 54-17 82-17 28 0 56 6 82 17 25 10 48 25 67 45 19 19 34 42 45 67 11 26 17 53 17 82 0 28-6 56-17 82-11 25-26 47-45 67-19 19-42 34-67 45-26 11-54 16-82 16z m-128-108l256 0 0-31-256 0z m0-87l256 0 0-31-256 0z m0-86l256 0 0-32-256 0z"/>
<glyph glyph-name="paddledown" unicode="&#110;" d="M256 144l-256 210 11 14 245-201 245 201 11-14z"/>
<glyph glyph-name="paddleleft" unicode="&#111;" d="M144 256l210 256 14-11-201-245 201-245-14-11z"/>
<glyph glyph-name="paddleright" unicode="&#112;" d="M368 256l-210-256-14 11 201 245-201 245 14 11z"/>
<glyph glyph-name="paddleup" unicode="&#113;" d="M256 368l256-210-11-14-245 201-245-201-11 14z"/>
<glyph glyph-name="pause" unicode="&#114;" d="M256 0c-33 0-64 6-94 19-29 12-55 30-77 52-22 22-40 48-52 77-12 29-19 61-19 94 0 32 7 64 19 94 12 29 30 55 52 77 22 22 48 39 77 52 30 12 61 19 94 19 33 0 64-7 94-19 29-13 55-30 77-52 22-22 40-48 52-77 12-30 19-62 19-94 0-33-7-65-19-94-12-29-30-55-52-77-22-22-48-40-77-52-30-13-61-19-94-19z m0 452c-28 0-56-5-82-16-25-11-48-26-67-45-19-20-34-42-45-67-11-26-17-54-17-82 0-29 6-56 17-82 11-25 26-48 45-67 19-20 42-35 67-45 26-11 54-17 82-17 28 0 56 6 82 17 25 10 48 25 67 45 19 19 34 42 45 67 11 26 17 53 17 82 0 28-6 56-17 82-11 25-26 47-45 67-19 19-42 34-67 45-26 11-54 16-82 16z m-74-82l31 0 0-256-31 0z m117 0l31 0 0-256-31 0z"/>
<glyph glyph-name="play" unicode="&#115;" d="M256 0c-33 0-64 6-94 19-29 12-55 30-77 52-22 22-40 48-52 77-12 29-19 61-19 94 0 32 7 64 19 94 12 29 30 55 52 77 22 22 48 39 77 52 30 12 61 19 94 19 33 0 64-7 94-19 29-13 55-30 77-52 22-22 40-48 52-77 12-30 19-62 19-94 0-33-7-65-19-94-12-29-30-55-52-77-22-22-48-40-77-52-30-13-61-19-94-19z m0 452c-28 0-56-5-82-16-25-11-48-26-67-45-19-20-34-42-45-67-11-26-17-54-17-82 0-29 6-56 17-82 11-25 26-48 45-67 19-20 42-35 67-45 26-11 54-17 82-17 28 0 56 6 82 17 25 10 48 25 67 45 19 19 34 42 45 67 11 26 17 53 17 82 0 28-6 56-17 82-11 25-26 47-45 67-19 19-42 34-67 45-26 11-54 16-82 16z m-40-141l103-69-103-70 0 139m-31 59l0-256 189 128z"/>
<glyph glyph-name="playalt" unicode="&#116;" d="M256 0c-33 0-64 6-94 19-29 12-55 30-77 52-22 22-40 48-52 77-12 29-19 61-19 94 0 32 7 64 19 94 12 29 30 55 52 77 22 22 48 39 77 52 30 12 61 19 94 19 33 0 64-7 94-19 29-13 55-30 77-52 22-22 40-48 52-77 12-30 19-62 19-94 0-33-7-65-19-94-12-29-30-55-52-77-22-22-48-40-77-52-30-13-61-19-94-19z m0 452c-28 0-56-5-82-16-25-11-48-26-67-45-19-20-34-42-45-67-11-26-17-54-17-82 0-29 6-56 17-82 11-25 26-48 45-67 19-20 42-35 67-45 26-11 54-17 82-17 28 0 56 6 82 17 25 10 48 25 67 45 19 19 34 42 45 67 11 26 17 53 17 82 0 28-6 56-17 82-11 25-26 47-45 67-19 19-42 34-67 45-26 11-54 16-82 16z m-71-82l0-256 189 128z"/>
<glyph glyph-name="replay" unicode="&#117;" d="M383 256l-31 0c0-5 1-9 1-14 0-13-3-26-8-38-5-11-12-22-21-31-8-9-19-16-30-20-12-5-25-8-38-8-13 0-26 3-38 8-11 4-22 11-30 20-9 9-16 20-21 31-5 12-8 25-8 38 0 13 3 26 8 37 5 12 12 22 21 31 8 9 19 16 30 21 12 5 25 8 38 8 5 0 10-1 14-2l0 0 0-47 74 65-74 64 0-50 0 0c-4 1-9 1-14 1-71 0-128-58-128-128 0-71 57-128 128-128 71 0 128 57 128 128 0 5 0 9-1 14z"/>
<glyph glyph-name="zoomalt" unicode="&#118;" d="M256 0c-33 0-64 6-94 19-29 12-55 30-77 52-22 22-40 48-52 77-12 29-19 61-19 94 0 32 7 64 19 94 12 29 30 55 52 77 22 22 48 39 77 52 30 12 61 19 94 19 33 0 64-7 94-19 29-13 55-30 77-52 22-22 40-48 52-77 12-30 19-62 19-94 0-33-7-65-19-94-12-29-30-55-52-77-22-22-48-40-77-52-30-13-61-19-94-19z m0 452c-28 0-56-5-82-16-25-11-48-26-67-45-19-20-34-42-45-67-11-26-17-54-17-82 0-29 6-56 17-82 11-25 26-48 45-67 19-20 42-35 67-45 26-11 54-17 82-17 28 0 56 6 82 17 25 10 48 25 67 45 19 19 34 42 45 67 11 26 17 53 17 82 0 28-6 56-17 82-11 25-26 47-45 67-19 19-42 34-67 45-26 11-54 16-82 16z m128-195l-113 0 0 113-30 0 0-113-113 0 0-31 113 0 0-112 30 0 0 112 113 0z"/>
<glyph glyph-name="closeinlinealt" unicode="&#119;" d="M356 164l-78 78 78 77-22 22-78-77-78 77-22-22 78-77-78-78 22-22 78 78 78-78z"/>
<glyph glyph-name="grid" unicode="&#120;" d="M71 484l85 0 0-86-85 0z m285 0l85 0 0-86-85 0z m-143 0l86 0 0-86-86 0z m-142-285l85 0 0-85-85 0z m285 0l85 0 0-85-85 0z m-143 0l86 0 0-85-86 0z m-142 142l85 0 0-85-85 0z m285 0l85 0 0-85-85 0z m-143 0l86 0 0-85-86 0z"/>
<glyph glyph-name="checkalt" unicode="&#121;" d="M233 164l-80 81 22 22 58-59 119 119 22-22z m23-164c-33 0-64 6-94 19-29 12-55 30-77 52-22 22-40 48-52 77-12 29-19 61-19 94 0 32 7 64 19 94 12 29 30 55 52 77 22 22 48 39 77 52 30 12 61 19 94 19 33 0 64-7 94-19 29-13 55-30 77-52 22-22 40-48 52-77 12-30 19-62 19-94 0-33-7-65-19-94-12-29-30-55-52-77-22-22-48-40-77-52-30-13-61-19-94-19z m0 452c-28 0-56-5-82-16-25-11-48-26-67-45-19-20-34-42-45-67-11-26-17-54-17-82 0-29 6-56 17-82 11-25 26-48 45-67 19-20 42-35 67-45 26-11 54-17 82-17 28 0 56 6 82 17 25 10 48 25 67 45 19 19 34 42 45 67 11 26 17 53 17 82 0 28-6 56-17 82-11 25-26 47-45 67-19 19-42 34-67 45-26 11-54 16-82 16z"/>
<glyph glyph-name="stop" unicode="&#122;" d="M256 0c-33 0-64 6-94 19-29 12-55 30-77 52-22 22-40 48-52 77-12 29-19 61-19 94 0 32 7 64 19 94 12 29 30 55 52 77 22 22 48 39 77 52 30 12 61 19 94 19 33 0 64-7 94-19 29-13 55-30 77-52 22-22 40-48 52-77 12-30 19-62 19-94 0-33-7-65-19-94-12-29-30-55-52-77-22-22-48-40-77-52-30-13-61-19-94-19z m0 452c-28 0-56-5-82-16-25-11-48-26-67-45-19-20-34-42-45-67-11-26-17-54-17-82 0-29 6-56 17-82 11-25 26-48 45-67 19-20 42-35 67-45 26-11 54-17 82-17 28 0 56 6 82 17 25 10 48 25 67 45 19 19 34 42 45 67 11 26 17 53 17 82 0 28-6 56-17 82-11 25-26 47-45 67-19 19-42 34-67 45-26 11-54 16-82 16z m68-142l0-137-136 0 0 137 136 0m32 31l-200 0 0-199 200 0z"/>
<glyph glyph-name="stopalt" unicode="&#65;" d="M256 0c-33 0-64 6-94 19-29 12-55 30-77 52-22 22-40 48-52 77-12 29-19 61-19 94 0 32 7 64 19 94 12 29 30 55 52 77 22 22 48 39 77 52 30 12 61 19 94 19 33 0 64-7 94-19 29-13 55-30 77-52 22-22 40-48 52-77 12-30 19-62 19-94 0-33-7-65-19-94-12-29-30-55-52-77-22-22-48-40-77-52-30-13-61-19-94-19z m0 452c-28 0-56-5-82-16-25-11-48-26-67-45-19-20-34-42-45-67-11-26-17-54-17-82 0-29 6-56 17-82 11-25 26-48 45-67 19-20 42-35 67-45 26-11 54-17 82-17 28 0 56 6 82 17 25 10 48 25 67 45 19 19 34 42 45 67 11 26 17 53 17 82 0 28-6 56-17 82-11 25-26 47-45 67-19 19-42 34-67 45-26 11-54 16-82 16z m100-111l-200 0 0-199 200 0z"/>
<glyph glyph-name="replayalt" unicode="&#66;" d="M256 0c-33 0-64 6-94 19-29 12-55 30-77 52-22 22-40 48-52 77-12 29-19 61-19 94 0 32 7 64 19 94 12 29 30 55 52 77 22 22 48 39 77 52 30 12 61 19 94 19 33 0 64-7 94-19 29-13 55-30 77-52 22-22 40-48 52-77 12-30 19-62 19-94 0-33-7-65-19-94-12-29-30-55-52-77-22-22-48-40-77-52-30-13-61-19-94-19z m0 452c-28 0-56-5-82-16-25-11-48-26-67-45-19-20-34-42-45-67-11-26-17-54-17-82 0-29 6-56 17-82 11-25 26-48 45-67 19-20 42-35 67-45 26-11 54-17 82-17 28 0 56 6 82 17 25 10 48 25 67 45 19 19 34 42 45 67 11 26 17 53 17 82 0 28-6 56-17 82-11 25-26 47-45 67-19 19-42 34-67 45-26 11-54 16-82 16z m127-196l-31 0c0-5 1-9 1-14 0-13-3-26-8-38-5-11-12-22-21-31-8-9-19-16-30-20-12-5-25-8-38-8-13 0-26 3-38 8-11 4-22 11-30 20-9 9-16 20-21 31-5 12-8 25-8 38 0 13 3 26 8 37 5 12 12 22 21 31 8 9 19 16 30 21 12 5 25 8 38 8 5 0 10-1 14-1l0-48 74 65-74 64 0-50c-4 1-9 1-14 1-71 0-128-58-128-128 0-71 57-128 128-128 71 0 128 57 128 128 0 5 0 9-1 14z"/>
<glyph glyph-name="uf030-facebook" unicode="&#67;" d="M458 455l-404 0c-14 0-26-11-26-25l0-405c0-14 12-25 26-25l218 0 0 176-60 0 0 69 60 0 0 51c0 58 35 90 88 90 25 0 47-1 53-2l0-62-36 0c-29 0-35-13-35-33l0-44 68 0-8-69-60 0 0-176 116 0c14 0 26 11 26 25l0 405c0 14-12 25-26 25"/>
<glyph glyph-name="link" unicode="&#68;" d="M191 100l-24-24c-21-21-56-21-77 0-10 10-16 23-16 37 0 15 6 28 16 38l90 90c19 18 54 45 79 20 12-12 31-12 43 0 11 12 11 31 0 43-44 43-108 35-164-21l-90-89c-22-22-34-50-34-81 0-30 12-58 34-80 22-22 51-33 80-33 30 0 59 11 81 33l25 24c11 12 11 31 0 43-12 12-31 12-43 0m273 347c-46 46-112 49-155 6l-31-30c-11-12-11-31 0-43 12-11 31-11 43 0l30 30c23 23 52 13 71-6 10-10 16-23 16-37 0-15-6-28-16-38l-96-95c-44-44-65-24-73-15-12 12-31 12-43 0-11-12-11-31 0-42 21-20 44-30 68-30 29 0 60 15 90 44l96 95c22 22 34 50 34 81 0 30-12 59-34 80"/>
<glyph glyph-name="mail" unicode="&#69;" d="M15 388c0-2-1-3-1-5l0-283c0-1 0-2 1-3l145 146z m242-212c5 0 11 2 15 7l215 215c-1 0-3 0-4 0l-454 0c-1 0-2 0-3 0l215-215c4-5 10-7 16-7m26-4c-7-7-16-11-26-11-10 0-20 4-27 11l-60 60-145-146c1 0 3-1 4-1l454 0c2 0 3 1 5 1l-145 146z m214 215l-144-144 145-145c0 1 0 1 0 2l0 283c0 2 0 3-1 4"/>
<glyph glyph-name="pinterest" unicode="&#70;" d="M256 484c-134 0-242-109-242-242 0-99 60-184 145-222-1 17 0 37 4 56 5 19 31 132 31 132 0 0-7 15-7 38 0 36 20 62 46 62 22 0 33-16 33-36 0-22-14-55-22-86-6-25 13-46 39-46 45 0 76 59 76 128 0 53-35 93-100 93-74 0-119-55-119-116 0-21 6-36 16-47 4-6 5-8 3-14-1-4-4-15-5-19-1-6-6-8-12-6-34 14-50 51-50 92 0 69 58 151 173 151 93 0 153-67 153-138 0-95-52-166-130-166-26 0-51 14-59 30 0 0-14-56-17-66-5-19-15-38-25-52 22-7 45-10 69-10 134 0 242 108 242 242 0 133-108 242-242 242"/>
<glyph glyph-name="qqweibo" unicode="&#71;" d="M140 445c-75 0-135-62-135-138 0-22 5-44 15-63 3-6 10-8 16-5 6 3 8 10 5 16-8 16-12 34-12 52 0 62 50 113 111 113 61 0 111-51 111-113 0-63-50-113-111-113-8 0-17 0-25 2-6 2-13-2-14-9-2-6 2-13 9-15 10-2 20-3 30-3 75 0 135 62 135 138 0 76-60 138-135 138z m-24-173c8-5 17-8 26-8 25 0 45 20 45 45 0 26-20 46-45 46-25 0-45-20-45-46 0-6 2-12 4-18-10-10-20-23-31-39-28-43-60-120-51-224 0-6 6-15 12-15l1 0c6 0 11 11 11 17-7 77 9 148 47 206 9 13 18 27 26 36z m275 71c-10 0-20 2-29 6-31 16-45 54-29 86 14 32 52 46 84 31 31-16 44-54 29-86-2-4-4-9-7-12-2-3-2-8 1-10 3-3 7-2 10 1 3 5 6 10 9 15 18 39 2 86-37 104-38 19-84 2-102-37-18-39-2-86 37-104 11-5 23-8 35-8 4 1 7 4 6 8 0 3-3 6-7 6z m112-53c-41 16-71 40-91 74-5 8-8 16-11 23 5 2 8 6 11 11 6 13 0 28-12 35-13 6-28 0-34-13-6-13-1-28 12-34 3-2 6-3 10-3 3-7 7-16 12-25 15-26 44-60 98-81 3-1 7 1 9 4 0 0 0 0 0 1 1 3-1 7-4 8z"/>
<glyph glyph-name="qzone" unicode="&#72;" d="M507 303c0 5 0 4-6 4l-150 0-22 38-61 116c-6 0-6 0-11 0l-56-116-22-38-174 0 0-3 32-22 88-76-20-175c0-5 1-5 12-5l145 87 144-87c6 0 6 0 12 5l-28 175 83 70z m-367-168l161 129-150 25 228 0-139-123 144-31z"/>
<glyph glyph-name="renren" unicode="&#73;" d="M471 354c-17 35-41 63-72 86-30 23-64 37-102 44l0-155c0-53 13-102 40-146 26-43 61-76 104-97 38 46 57 98 57 157 0 40-9 77-27 111z m-256-25l0 155c-37-7-72-21-102-44-31-23-55-51-72-86-18-34-27-71-27-111 0-59 19-111 57-157 43 21 78 54 104 97 27 44 40 93 40 146z m82-232c-21 26-35 55-42 85-7-30-21-59-41-85-21-26-46-49-74-67 35-20 74-30 115-30 41 0 80 10 116 30-29 18-54 41-74 67z"/>
<glyph glyph-name="share" unicode="&#74;" d="M331 408l-75 76-75-76 22-22 38 38 0-253 30 0 0 253 38-38z m-4-67l0-31 83 0 0-279-308 0 0 279 83 0 0 31-114 0 0-341 370 0 0 341z"/>
<glyph glyph-name="tumblr" unicode="&#75;" d="M284 455l-66 0c-1 0-3-1-3-3-4-36-20-98-89-123l0-59 46 0 0-148c0-51 36-122 132-122 1 0 2 0 4 0 33 1 70 15 78 27l-22 65c-8-4-24-8-36-8-1 0-2 0-2 0-35 0-41 26-42 45l0 141 91 0 0 69-91 0 0 116"/>
<glyph glyph-name="twitter" unicode="&#76;" d="M508 367l0 0m-155 50c-57 0-103-47-103-105 0-9 0-17 2-24-86 4-162 46-213 110-9-16-14-34-14-53 0-37 18-69 46-88-17 1-33 5-47 13 0 0 0-1 0-1 0-51 36-94 83-103-9-3-18-4-27-4-7 0-13 1-20 2 14-42 52-72 97-73-35-28-80-45-128-45-9 0-17 0-25 1 46-30 100-47 158-47 191 0 295 160 295 299 0 5 0 9-1 14 21 15 38 33 52 54-18-8-38-14-59-16 21 13 37 34 45 58-20-12-42-21-66-25-18 20-45 33-75 33"/>
<glyph glyph-name="webo" unicode="&#77;" d="M507 313c-6 75-67 132-149 121-11-2-22-1-24-14-5-30 27-20 41-20 48 0 98-41 97-100 0-20-16-54 14-51 18 2 23 36 21 64z m-134-68c8 20 13 46 0 61-28 33-92-1-122-3 14 43-1 87-53 74-48-12-84-39-117-73-35-35-71-77-76-130-6-63 33-94 70-116 112-63 291-28 350 56 9 12 17 30 19 44 7 58-35 67-71 87z m-37-137c-31-35-96-58-161-54-56 4-132 37-118 108 6 32 32 53 54 66 26 15 52 23 90 27 69 5 157-21 157-91 0-23-11-43-22-56z m87 164c12 1 18 19 15 41-4 30-30 55-66 53-8-1-22 1-22-16 0-23 24-10 40-17 8-4 18-17 19-29 1-18-7-34 14-32z m-230-57c-47-5-93-47-74-100 29-78 185-36 155 56-9 27-40 48-81 44z m-16-108c-37-9-44 39-10 47 39 9 36-41 10-47z m25 48c0 14 18 16 20 6 1-9-14-17-20-6z"/>
<glyph glyph-name="instagram" unicode="&#78;" d="M431 263l-40 0c3-12 5-23 5-35 0-78-63-140-140-140-77 0-140 62-140 140 0 12 2 23 5 35l-40 0 0-193c0-10 8-17 17-17l316 0c9 0 17 7 17 17z m0 122c0 10-8 18-17 18l-53 0c-10 0-17-8-17-18l0-52c0-10 7-18 17-18l53 0c9 0 17 8 17 18z m-175-70c-48 0-88-39-88-87 0-49 40-88 88-88 48 0 88 39 88 88 0 48-40 87-88 87m175-315l-350 0c-29 0-53 24-53 53l0 350c0 29 24 52 53 52l350 0c29 0 53-23 53-52l0-350c0-29-24-53-53-53"/>
<glyph glyph-name="check" unicode="&#79;" d="M233 164l-80 81 22 22 58-59 119 119 22-22z"/>
<glyph glyph-name="linkedin" unicode="&#80;" d="M458 455l-404 0c-14 0-26-11-26-25l0-405c0-14 12-25 26-25l404 0c14 0 26 11 26 25l0 405c0 14-12 25-26 25z m-295-398l-67 0 0 227 67 0z m-33 257c-22 0-40 18-40 39 0 22 18 39 40 39 21 0 39-17 39-39 0-21-18-39-39-39z m286-257l-68 0 0 116c0 25 0 57-35 57-35 0-40-27-40-55l0-118-67 0 0 227 64 0 0-29 1 0c9 17 31 35 64 35 68 0 81-45 81-104z"/>
<glyph glyph-name="snapchat" unicode="&#81;" d="M398 267c6 2 11 5 16 6 8 0 18 0 25-4 12-6 13-19 2-27-9-7-20-11-30-15-24-9-27-16-15-38 20-36 47-63 89-74 4-1 11-5 11-8-1-6-4-14-8-16-14-7-29-12-44-15-9-2-13-6-15-15-4-18-8-21-26-17-29 6-54 1-79-17-50-36-87-36-136 0-25 18-50 23-78 17-19-4-22-2-27 18-2 8-5 12-14 13-15 3-29 8-42 14-5 3-10 11-11 17 0 3 9 9 14 10 45 13 73 43 91 84 4 10 1 17-7 21-7 4-15 6-23 10-5 2-10 4-14 6-9 6-17 13-11 25 4 9 18 15 29 11 6-2 12-4 18-6 9-2 13 1 13 11-1 23-2 46 0 69 4 49 32 81 76 98 63 24 138 6 172-55 12-22 14-45 15-69-1-14-2-29-3-44-1-10 4-12 12-10z"/>
<glyph glyph-name="zoom" unicode="&#82;" d="M384 257l-113 0 0 113-30 0 0-113-113 0 0-31 113 0 0-112 30 0 0 112 113 0z"/>
<glyph glyph-name="zoomoutalt" unicode="&#83;" d="M256 0c-33 0-64 6-94 19-29 12-55 30-77 52-22 22-40 48-52 77-12 29-19 61-19 94 0 32 7 64 19 94 12 29 30 55 52 77 22 22 48 39 77 52 30 12 61 19 94 19 33 0 64-7 94-19 29-13 55-30 77-52 22-22 40-48 52-77 12-30 19-62 19-94 0-33-7-65-19-94-12-29-30-55-52-77-22-22-48-40-77-52-30-13-61-19-94-19z m0 452c-28 0-56-5-82-16-25-11-48-26-67-45-19-20-34-42-45-67-11-26-17-54-17-82 0-29 6-56 17-82 11-25 26-48 45-67 19-20 42-35 67-45 26-11 54-17 82-17 28 0 56 6 82 17 25 10 48 25 67 45 19 19 34 42 45 67 11 26 17 53 17 82 0 28-6 56-17 82-11 25-26 47-45 67-19 19-42 34-67 45-26 11-54 16-82 16z m128-195l-256 0 0-31 256 0z"/>
<glyph glyph-name="zoomout" unicode="&#84;" d="M384 257l-256 0 0-31 256 0z"/>
<glyph glyph-name="favorite" unicode="&#85;" d="M141 433c10 0 20-2 30-6 9-4 17-9 26-15 16-13 28-28 36-38l1-1 23-29 21 29c1 1 13 18 33 33 10 8 21 15 31 19 12 5 23 8 34 8 26 0 49-8 67-22 10-8 18-18 24-31 6-13 9-28 9-43 0-14-2-27-6-39-3-9-8-18-15-28-4-6-17-19-21-24-9-8-17-16-22-21l-2-3c-15-15-111-113-154-156l0 0 0 0c-43 44-140 142-154 156l-2 3c-5 5-13 13-22 21-4 5-17 18-21 24-7 10-12 19-15 28-4 12-6 25-6 39 0 15 3 29 9 41 6 12 15 22 25 30 10 8 20 13 31 17 12 5 24 7 36 8 1 0 3 0 4 0m0 28c-2 0-3 0-5 0-31-2-60-13-83-31-27-21-45-53-45-93 0-38 12-63 26-83 5-7 14-17 25-27 9-10 19-20 23-24 18-19 169-172 174-177l0 0c0 0 0 0 0 0 0 0 0 0 0 0l0 0c5 5 156 158 174 177 4 4 14 14 23 24 11 10 20 20 25 27 14 20 26 45 26 83 0 40-17 75-44 96-23 18-52 28-84 28-64 0-115-64-120-71-17 22-55 71-115 71z"/>
<glyph glyph-name="clearsolid" unicode="&#86;" d="M479 336c-12 29-30 55-52 77-22 22-48 39-77 52-30 12-61 19-94 19-33 0-64-7-94-19-29-13-55-30-77-52-22-22-40-48-52-77-12-30-19-62-19-94 0-33 7-65 19-94 12-29 30-55 52-77 22-22 48-40 77-52 30-13 61-19 94-19 33 0 64 6 94 19 29 12 55 30 77 52 22 22 40 48 52 77 12 29 19 61 19 94 0 32-7 64-19 94z m-123-172l-22-22-78 78-78-78-22 22 78 78-78 77 22 22 78-77 78 77 22-22-78-77z"/>
<glyph glyph-name="remove" unicode="&#87;" d="M479 336c-12 29-30 55-52 77-22 22-48 39-77 52-30 12-61 19-94 19-33 0-64-7-94-19-29-13-55-30-77-52-22-22-40-48-52-77-12-30-19-62-19-94 0-33 7-65 19-94 12-29 30-55 52-77 22-22 48-40 77-52 30-13 61-19 94-19 33 0 64 6 94 19 29 12 55 30 77 52 22 22 40 48 52 77 12 29 19 61 19 94 0 32-7 64-19 94z m-95-110l-256 0 0 31 256 0z"/>
<glyph glyph-name="unvalidatedalt" unicode="&#88;" d="M256 484c33 0 64-7 94-19 29-13 55-30 77-52 22-22 40-48 52-77 12-30 19-62 19-94 0-33-7-65-19-94-12-29-30-55-52-77-22-22-48-40-77-52-30-13-61-19-94-19-33 0-64 6-94 19-29 12-55 30-77 52-22 22-40 48-52 77-12 29-19 61-19 94 0 32 7 64 19 94 12 29 30 55 52 77 22 22 48 39 77 52 30 12 61 19 94 19z m0-453c28 0 56 6 82 17 25 10 48 25 67 45 19 19 34 42 45 67 11 26 17 53 17 82 0 28-6 56-17 82-11 25-26 47-45 67-19 19-42 34-67 45-26 11-54 16-82 16-28 0-56-5-82-16-25-11-48-26-67-45-19-20-34-42-45-67-11-26-17-54-17-82 0-29 6-56 17-82 11-25 26-48 45-67 19-20 42-35 67-45 26-11 54-17 82-17z m0 135c-7 0-14-3-19-7-5-5-7-11-7-19 0-8 2-14 7-19 5-5 11-7 19-7 7 0 14 2 19 7 5 5 7 11 7 19 0 7-2 14-7 18-5 5-11 8-19 8z m18 56c0-13-5-23-18-23-13 0-18 10-18 23 0 0-11 111-9 125 1 13 10 23 23 23l8 0c13 0 20-11 23-23 3-12-9-125-9-125z"/>
<glyph glyph-name="unvalidated" unicode="&#89;" d="M479 336c-12 29-30 55-52 77-22 22-48 39-77 52-30 12-61 19-94 19-33 0-64-7-94-19-29-13-55-30-77-52-22-22-40-48-52-77-12-30-19-62-19-94 0-33 7-65 19-94 12-29 30-55 52-77 22-22 48-40 77-52 30-13 61-19 94-19 33 0 64 6 94 19 29 12 55 30 77 52 22 22 40 48 52 77 12 29 19 61 19 94 0 32-7 64-19 94z m-204-215c-5-5-12-7-19-7-8 0-14 2-19 7-5 5-7 11-7 19 0 8 2 14 7 19 5 4 12 7 19 7 8 0 14-3 19-8 5-4 7-11 7-18 0-8-2-14-7-19z m-1 101c0-13-5-23-18-23-13 0-18 10-18 23 0 0-11 111-9 125 1 13 10 23 23 23l8 0c13 0 20-11 23-23 3-12-9-125-9-125z"/>
<glyph glyph-name="info" unicode="&#90;" d="M480 333c-12 30-30 57-53 80-23 23-50 41-80 53-29 12-60 18-91 18-31 0-62-6-91-18-30-12-57-30-80-53-23-23-41-50-53-80-12-29-18-60-18-91 0-32 6-62 18-91 12-30 30-57 53-80 23-23 50-41 80-53 29-12 60-18 91-18 31 0 62 6 91 18 30 12 57 30 80 53 23 23 41 50 53 80 12 29 18 59 18 91 0 31-6 62-18 91z m-205-212c-5-5-12-7-19-7-8 0-14 2-19 7-5 5-7 11-7 19 0 8 2 14 7 19 5 4 12 7 19 7 8 0 14-3 19-8 5-4 7-11 7-18 0-8-2-14-7-19z m13 128c-13-11-10-18-12-35-1-11-12-15-19-15-7-1-20 4-21 15-2 19 1 25 4 33 10 25 44 32 45 58 0 33-49 44-58 6-4-17-36-15-35 4 0 15 9 31 24 43 24 19 90 19 104-37 8-33-7-51-32-72z"/>
<glyph glyph-name="add" unicode="&#48;" d="M480 333c-12 30-30 57-53 80-23 23-50 41-80 53-29 12-60 18-91 18-31 0-62-6-91-18-30-12-57-30-80-53-23-23-41-50-53-80-12-29-18-60-18-91 0-32 6-62 18-91 12-30 30-57 53-80 23-23 50-41 80-53 29-12 60-18 91-18 31 0 62 6 91 18 30 12 57 30 80 53 23 23 41 50 53 80 12 29 18 59 18 91 0 31-6 62-18 91z m-96-107l-113 0 0-112-30 0 0 112-113 0 0 31 113 0 0 113 30 0 0-113 113 0z"/>
<glyph glyph-name="exclamation" unicode="&#49;" d="M256 166c-7 0-14-3-19-7-5-5-7-11-7-19 0-8 2-14 7-19 5-5 11-7 19-7 7 0 14 2 19 7 5 5 7 11 7 19 0 7-2 14-7 18-5 5-11 8-19 8z m18 56c0-13-5-23-18-23-13 0-18 10-18 23 0 0-11 111-9 125 1 13 10 23 23 23l8 0c13 0 20-11 23-23 3-12-9-125-9-125z"/>
<glyph glyph-name="infoalt" unicode="&#50;" d="M275 122c-5-5-12-8-19-8-8 0-14 3-19 7-5 5-7 12-7 19 0 8 2 14 7 19 5 5 12 7 19 7 8 0 14-2 19-7 5-5 7-11 7-19 0-7-2-13-7-18z m13 127c-13-11-10-17-12-35-1-11-12-15-19-15-7 0-20 5-21 15-2 19 1 26 4 33 10 26 44 33 45 58 0 34-49 44-58 6-4-16-36-15-35 4 0 15 9 32 24 43 24 19 90 20 104-36 8-33-7-52-32-73z m-32-249c-33 0-64 6-94 19-29 12-55 30-77 52-22 22-40 48-52 77-12 29-19 61-19 94 0 32 7 64 19 94 12 29 30 55 52 77 22 22 48 39 77 52 30 12 61 19 94 19 33 0 64-7 94-19 29-13 55-30 77-52 22-22 40-48 52-77 12-30 19-62 19-94 0-33-7-65-19-94-12-29-30-55-52-77-22-22-48-40-77-52-30-13-61-19-94-19z m0 452c-28 0-56-5-82-16-25-11-48-26-67-45-19-20-34-42-45-67-11-26-17-54-17-82 0-29 6-56 17-82 11-25 26-48 45-67 19-20 42-35 67-45 26-11 54-17 82-17 28 0 56 6 82 17 25 10 48 25 67 45 19 19 34 42 45 67 11 26 17 53 17 82 0 28-6 56-17 82-11 25-26 47-45 67-19 19-42 34-67 45-26 11-54 16-82 16z"/>
<glyph glyph-name="circle" unicode="&#51;" d="M256 0c-33 0-64 6-94 19-29 12-55 30-77 52-22 22-40 48-52 77-12 29-19 61-19 94 0 32 7 64 19 94 12 29 30 55 52 77 22 22 48 39 77 52 30 12 61 19 94 19 33 0 64-7 94-19 29-13 55-30 77-52 22-22 40-48 52-77 12-30 19-62 19-94 0-33-7-65-19-94-12-29-30-55-52-77-22-22-48-40-77-52-30-13-61-19-94-19z m0 452c-28 0-56-5-82-16-25-11-48-26-67-45-19-20-34-42-45-67-11-26-17-54-17-82 0-29 6-56 17-82 11-25 26-48 45-67 19-20 42-35 67-45 26-11 54-17 82-17 28 0 56 6 82 17 25 10 48 25 67 45 19 19 34 42 45 67 11 26 17 53 17 82 0 28-6 56-17 82-11 25-26 47-45 67-19 19-42 34-67 45-26 11-54 16-82 16z"/>
<glyph glyph-name="checksolid" unicode="&#52;" d="M479 336c-12 29-30 55-52 77-22 22-48 39-77 52-30 12-61 19-94 19-33 0-64-7-94-19-29-13-55-30-77-52-22-22-40-48-52-77-12-30-19-62-19-94 0-33 7-65 19-94 12-29 30-55 52-77 22-22 48-40 77-52 30-13 61-19 94-19 33 0 64 6 94 19 29 12 55 30 77 52 22 22 40 48 52 77 12 29 19 61 19 94 0 32-7 64-19 94z m-246-172l-80 81 22 22 58-59 119 119 22-22z"/>
<glyph glyph-name="form-alert" unicode="&#53;" d="M256 0c-35 0-68 7-100 20-30 13-58 31-81 55-24 23-42 51-55 81-13 32-20 65-20 100 0 35 7 68 20 100 13 30 31 58 55 81 23 24 51 42 81 55 32 13 65 20 100 20 35 0 68-7 100-20 30-13 58-31 81-55 24-23 42-51 55-81 13-32 20-65 20-100 0-35-7-68-20-100-13-30-31-58-55-81-23-24-51-42-81-55-32-13-65-20-100-20z m0 479c-30 0-59-6-87-18-26-11-50-27-71-47-20-21-36-45-47-71-12-28-18-57-18-87 0-30 6-59 18-87 11-26 27-50 47-71 21-20 45-36 71-47 28-12 57-18 87-18 30 0 59 6 87 18 26 11 50 27 71 47 20 21 36 45 47 71 12 28 18 57 18 87 0 30-6 59-18 87-11 26-27 50-47 71-21 20-45 36-71 47-28 12-57 18-87 18z m-16-178l32 0 0-181-32 0z m16 48c6 0 11 2 15 6 4 4 6 9 6 15 0 7-2 12-6 16-4 4-9 6-15 6-6 0-11-3-15-7-4-4-6-9-6-15 0-6 2-11 6-15 4-4 9-6 15-6z"/>
<glyph glyph-name="form-checkalt" unicode="&#54;" d="M231 173l-84 86 23 24 61-63 127 127 23-24z m25-173c-35 0-68 7-100 20-30 13-58 31-81 55-24 23-42 51-55 81-13 32-20 65-20 100 0 35 7 68 20 100 13 30 31 58 55 81 23 24 51 42 81 55 32 13 65 20 100 20 35 0 68-7 100-20 30-13 58-31 81-55 24-23 42-51 55-81 13-32 20-65 20-100 0-35-7-68-20-100-13-30-31-58-55-81-23-24-51-42-81-55-32-13-65-20-100-20z m0 479c-30 0-59-6-87-18-26-11-50-27-71-47-20-21-36-45-47-71-12-28-18-57-18-87 0-30 6-59 18-87 11-26 27-50 47-71 21-20 45-36 71-47 28-12 57-18 87-18 30 0 59 6 87 18 26 11 50 27 71 47 20 21 36 45 47 71 12 28 18 57 18 87 0 30-6 59-18 87-11 26-27 50-47 71-21 20-45 36-71 47-28 12-57 18-87 18z"/>
<glyph glyph-name="form-check" unicode="&#55;" d="M231 173l-84 86 23 24 61-63 127 127 23-24z"/>
<glyph glyph-name="form-remove" unicode="&#56;" d="M492 356c-13 30-31 58-55 81-23 24-51 42-81 55-32 13-65 20-100 20-35 0-68-7-100-20-30-13-58-31-81-55-24-23-42-51-55-81-13-32-20-65-20-100 0-35 7-68 20-100 13-30 31-58 55-81 23-24 51-42 81-55 32-13 65-20 100-20 35 0 68 7 100 20 30 13 58 31 81 55 24 23 42 51 55 81 13 32 20 65 20 100 0 35-7 68-20 100z m-100-116l-272 0 0 32 272 0z"/>
<glyph glyph-name="form-unvalidatedalt" unicode="&#57;" d="M256 512c35 0 68-7 100-20 30-13 58-31 81-55 24-23 42-51 55-81 13-32 20-65 20-100 0-35-7-68-20-100-13-30-31-58-55-81-23-24-51-42-81-55-32-13-65-20-100-20-35 0-68 7-100 20-30 13-58 31-81 55-24 23-42 51-55 81-13 32-20 65-20 100 0 35 7 68 20 100 13 30 31 58 55 81 23 24 51 42 81 55 32 13 65 20 100 20z m0-479c30 0 59 6 87 18 26 11 50 27 71 47 20 21 36 45 47 71 12 28 18 57 18 87 0 30-6 59-18 87-11 26-27 50-47 71-21 20-45 36-71 47-28 12-57 18-87 18-30 0-59-6-87-18-26-11-50-27-71-47-20-21-36-45-47-71-12-28-18-57-18-87 0-30 6-59 18-87 11-26 27-50 47-71 21-20 45-36 71-47 28-12 57-18 87-18z m0 143c-8 0-14-3-20-8-5-5-8-12-8-20 0-8 3-15 8-20 5-5 12-8 20-8 8 0 14 3 20 8 5 6 8 12 8 20 0 8-3 15-8 20-5 5-12 8-20 8z m19 59c0-14-6-24-19-24-14 0-20 10-20 24 0 0-11 117-9 133 2 13 11 24 25 24l8 0c14 0 21-12 25-24 3-14-10-133-10-133z"/>
<glyph glyph-name="form-unvalidated" unicode="&#33;" d="M492 356c-13 30-31 58-55 81-23 24-51 42-81 55-32 13-65 20-100 20-35 0-68-7-100-20-30-13-58-31-81-55-24-23-42-51-55-81-13-32-20-65-20-100 0-35 7-68 20-100 13-30 31-58 55-81 23-24 51-42 81-55 32-13 65-20 100-20 35 0 68 7 100 20 30 13 58 31 81 55 24 23 42 51 55 81 13 32 20 65 20 100 0 35-7 68-20 100z m-216-228c-6-5-12-8-20-8-8 0-15 3-20 8-5 5-8 12-8 20 0 8 3 15 8 20 6 5 12 8 20 8 8 0 15-3 20-8 5-5 8-12 8-20 0-8-3-14-8-20z m-1 107c0-14-6-24-19-24-14 0-20 10-20 24 0 0-11 117-9 133 2 13 11 24 25 24l8 0c14 0 21-12 25-24 3-14-10-133-10-133z"/>
<glyph glyph-name="form-info" unicode="&#34;" d="M493 352c-13 32-32 61-56 85-24 24-53 43-85 56-30 13-63 19-96 19-33 0-66-6-96-19-32-13-61-32-85-56-24-24-43-53-56-85-13-30-19-63-19-96 0-33 6-66 19-96 13-32 32-61 56-85 24-24 53-43 85-56 30-13 63-19 96-19 33 0 66 6 96 19 32 13 61 32 85 56 24 24 43 53 56 85 13 30 19 63 19 96 0 33-6 66-19 96z m-217-224c-6-5-12-8-20-8-8 0-15 3-20 8-5 5-8 12-8 20 0 8 3 15 8 20 6 5 12 8 20 8 8 0 15-3 20-8 5-5 8-12 8-20 0-8-3-14-8-20z m14 136c-14-12-10-19-13-38-1-11-13-15-20-16-7 0-21 5-23 17-2 19 1 26 5 34 10 27 47 35 47 62 1 35-51 46-61 6-4-17-37-16-37 4 0 16 10 34 25 46 26 20 96 21 111-39 8-35-8-54-34-76z"/>
<glyph glyph-name="form-add" unicode="&#35;" d="M493 352c-13 32-32 61-56 85-24 24-53 43-85 56-30 13-63 19-96 19-33 0-66-6-96-19-32-13-61-32-85-56-24-24-43-53-56-85-13-30-19-63-19-96 0-33 6-66 19-96 13-32 32-61 56-85 24-24 53-43 85-56 30-13 63-19 96-19 33 0 66 6 96 19 32 13 61 32 85 56 24 24 43 53 56 85 13 30 19 63 19 96 0 33-6 66-19 96z m-101-112l-120 0 0-120-32 0 0 120-120 0 0 32 120 0 0 120 32 0 0-120 120 0z"/>
<glyph glyph-name="form-exclamation" unicode="&#36;" d="M256 176c-8 0-14-3-20-8-5-5-8-12-8-20 0-8 3-15 8-20 5-5 12-8 20-8 8 0 14 3 20 8 5 6 8 12 8 20 0 8-3 15-8 20-5 5-12 8-20 8z m19 59c0-14-6-24-19-24-14 0-20 10-20 24 0 0-11 117-9 133 2 13 11 24 25 24l8 0c14 0 21-12 25-24 3-14-10-133-10-133z"/>
<glyph glyph-name="form-infoalt" unicode="&#37;" d="M276 129c-6-5-12-8-20-8-8 0-15 2-20 8-5 5-8 11-8 19 0 9 3 15 8 20 6 6 12 8 20 8 8 0 15-3 20-8 5-5 8-12 8-20 0-7-3-14-8-19z m14 135c-14-12-10-19-13-37-1-12-13-16-20-16-7 0-21 4-23 16-2 20 1 27 5 35 10 27 47 34 47 61 1 36-51 46-61 6-4-17-37-15-37 5 0 16 10 33 25 45 26 20 96 21 111-39 8-34-8-54-34-76z m-34-264c-35 0-68 7-100 20-30 13-58 31-81 55-24 23-42 51-55 81-13 32-20 65-20 100 0 35 7 68 20 100 13 30 31 58 55 81 23 24 51 42 81 55 32 13 65 20 100 20 35 0 68-7 100-20 30-13 58-31 81-55 24-23 42-51 55-81 13-32 20-65 20-100 0-35-7-68-20-100-13-30-31-58-55-81-23-24-51-42-81-55-32-13-65-20-100-20z m0 479c-30 0-59-6-87-18-26-11-50-27-71-47-20-21-36-45-47-71-12-28-18-57-18-87 0-30 6-59 18-87 11-26 27-50 47-71 21-20 45-36 71-47 28-12 57-18 87-18 30 0 59 6 87 18 26 11 50 27 71 47 20 21 36 45 47 71 12 28 18 57 18 87 0 30-6 59-18 87-11 26-27 50-47 71-21 20-45 36-71 47-28 12-57 18-87 18z"/>
<glyph glyph-name="form-circle" unicode="&#38;" d="M256 0c-35 0-68 7-100 20-30 13-58 31-81 55-24 23-42 51-55 81-13 32-20 65-20 100 0 35 7 68 20 100 13 30 31 58 55 81 23 24 51 42 81 55 32 13 65 20 100 20 35 0 68-7 100-20 30-13 58-31 81-55 24-23 42-51 55-81 13-32 20-65 20-100 0-35-7-68-20-100-13-30-31-58-55-81-23-24-51-42-81-55-32-13-65-20-100-20z m0 479c-30 0-59-6-87-18-26-11-50-27-71-47-20-21-36-45-47-71-12-28-18-57-18-87 0-30 6-59 18-87 11-26 27-50 47-71 21-20 45-36 71-47 28-12 57-18 87-18 30 0 59 6 87 18 26 11 50 27 71 47 20 21 36 45 47 71 12 28 18 57 18 87 0 30-6 59-18 87-11 26-27 50-47 71-21 20-45 36-71 47-28 12-57 18-87 18z"/>
<glyph glyph-name="form-checksolid" unicode="&#39;" d="M492 356c-13 30-31 58-55 81-23 24-51 42-81 55-32 13-65 20-100 20-35 0-68-7-100-20-30-13-58-31-81-55-24-23-42-51-55-81-13-32-20-65-20-100 0-35 7-68 20-100 13-30 31-58 55-81 23-24 51-42 81-55 32-13 65-20 100-20 35 0 68 7 100 20 30 13 58 31 81 55 24 23 42 51 55 81 13 32 20 65 20 100 0 35-7 68-20 100z m-261-183l-84 86 23 24 61-63 127 127 23-24z"/>
<glyph glyph-name="chevronleft" unicode="&#40;" d="M326 125l-98 112 98 112-24 21-116-133 116-133z"/>
<glyph glyph-name="chevrondownalt" unicode="&#41;" d="M256 0c-33 0-64 6-94 19-29 12-55 30-77 52-22 22-40 48-52 77-12 29-19 61-19 94 0 32 7 64 19 94 12 29 30 54 52 77 22 22 48 39 77 51 30 13 61 19 94 19 33 0 64-6 94-19 29-12 55-29 77-51 22-23 40-48 52-77 12-30 19-62 19-94 0-33-7-65-19-94-12-29-30-55-52-77-22-22-48-40-77-52-30-13-61-19-94-19z m0 452c-28 0-56-5-82-16-25-11-48-26-67-45-19-20-34-42-45-67-11-26-17-54-17-82 0-29 6-56 17-82 11-25 26-48 45-67 19-20 42-35 67-45 26-11 54-17 82-17 28 0 56 6 82 17 25 10 48 25 67 45 19 19 34 42 45 67 11 26 17 53 17 82 0 28-6 56-17 82-11 25-26 47-45 67-19 19-42 34-67 45-26 11-54 16-82 16z m-108-164l108-94 108 94 20-23-128-112-128 112z"/>
<glyph glyph-name="chevrondown" unicode="&#42;" d="M148 288l108-94 108 94 20-23-128-112-128 112z"/>
<glyph glyph-name="form-clearsolid" unicode="&#43;" d="M492 356c-13 30-31 58-55 81-23 24-51 42-81 55-32 13-65 20-100 20-35 0-68-7-100-20-30-13-58-31-81-55-24-23-42-51-55-81-13-32-20-65-20-100 0-35 7-68 20-100 13-30 31-58 55-81 23-24 51-42 81-55 32-13 65-20 100-20 35 0 68 7 100 20 30 13 58 31 81 55 24 23 42 51 55 81 13 32 20 65 20 100 0 35-7 68-20 100z m-131-182l-23-24-82 83-82-83-23 24 82 82-82 82 23 23 82-82 82 82 23-23-82-82z"/>
</font>
</defs>
</svg>
